<?xml version="1.0" encoding="UTF-8" standalone="no"?>
<!DOCTYPE svg PUBLIC "-//W3C//DTD SVG 1.1//EN" "http://www.w3.org/Graphics/SVG/1.1/DTD/svg11.dtd">
<svg width="100%" height="100%" viewBox="0 0 431 132" version="1.1" xmlns="http://www.w3.org/2000/svg" xmlns:xlink="http://www.w3.org/1999/xlink" xml:space="preserve" xmlns:serif="http://www.serif.com/" style="fill-rule:evenodd;clip-rule:evenodd;stroke-linejoin:round;stroke-miterlimit:1.41421;">
    <g transform="matrix(1,0,0,1,0,-181.335)">
        <g id="台富云logo白" transform="matrix(0.107526,0,0,0.065956,0,181.335)">
            <rect x="0" y="0" width="4000" height="2000" style="fill:none;"/>
            <g transform="matrix(1.12004,0,0,1.12004,-240.087,-120.043)">
                <g transform="matrix(18.6002,0,0,30.3233,2064.26,782.567)">
                    <path d="M0,7.085C0,6.952 -0.067,6.886 -0.2,6.886L-12.886,6.886C-13.02,6.886 -13.086,6.952 -13.086,7.085L-13.086,12.743C-13.086,12.896 -13.02,12.972 -12.886,12.972L-0.2,12.972C-0.067,12.972 0,12.896 0,12.743L0,7.085ZM-14.486,16.828C-14.867,16.828 -15.195,16.69 -15.472,16.414C-15.748,16.138 -15.886,15.81 -15.886,15.429L-15.886,5.971C-15.886,5.495 -15.72,5.096 -15.386,4.772C-15.053,4.447 -14.657,4.285 -14.2,4.285L1.258,4.285C1.714,4.285 2.109,4.447 2.443,4.772C2.775,5.096 2.943,5.495 2.943,5.971L2.943,15.343C2.943,15.743 2.801,16.086 2.514,16.371C2.229,16.657 1.886,16.8 1.486,16.8L1.086,16.8C0.781,16.8 0.523,16.695 0.314,16.486C0.104,16.275 0,16.028 0,15.743C0,15.648 -0.038,15.601 -0.114,15.601L-12.972,15.601C-13.048,15.601 -13.086,15.648 -13.086,15.743C-13.086,16.047 -13.195,16.305 -13.415,16.514C-13.634,16.724 -13.896,16.828 -14.2,16.828L-14.486,16.828ZM-2.171,-4.4C-2.42,-4.61 -2.543,-4.876 -2.543,-5.2C-2.543,-5.562 -2.4,-5.848 -2.114,-6.058C-1.81,-6.286 -1.477,-6.4 -1.114,-6.4L-1.057,-6.4C-0.657,-6.381 -0.314,-6.248 -0.028,-6C2.523,-3.829 4.523,-1.801 5.972,0.086C6.162,0.353 6.257,0.638 6.257,0.942C6.257,1.038 6.247,1.133 6.229,1.229C6.172,1.628 5.972,1.962 5.629,2.229C5.381,2.419 5.114,2.514 4.828,2.514C4.733,2.514 4.638,2.504 4.543,2.485C4.162,2.409 3.848,2.2 3.601,1.856C3.296,1.439 2.962,1.01 2.601,0.571C2.505,0.457 2.391,0.409 2.258,0.428C-0.143,0.542 -6.762,0.828 -17.601,1.285L-17.657,1.285C-18.02,1.285 -18.334,1.171 -18.601,0.942C-18.925,0.657 -19.086,0.295 -19.086,-0.144C-19.086,-0.467 -18.972,-0.753 -18.743,-1.001C-18.496,-1.286 -18.182,-1.438 -17.801,-1.457L-14.972,-1.543C-14.839,-1.543 -14.733,-1.601 -14.657,-1.715C-13.229,-3.905 -11.943,-6.238 -10.8,-8.715C-10.609,-9.115 -10.305,-9.41 -9.886,-9.601C-9.657,-9.695 -9.429,-9.743 -9.2,-9.743C-9.01,-9.743 -8.819,-9.715 -8.629,-9.658C-8.229,-9.524 -7.953,-9.258 -7.8,-8.858C-7.725,-8.686 -7.686,-8.515 -7.686,-8.344C-7.686,-8.134 -7.743,-7.924 -7.857,-7.715C-9,-5.639 -10.182,-3.686 -11.399,-1.857C-11.419,-1.819 -11.419,-1.781 -11.399,-1.743C-11.381,-1.705 -11.353,-1.686 -11.314,-1.686C-3.962,-1.972 -0.2,-2.115 -0.028,-2.115C0.009,-2.115 0.038,-2.134 0.058,-2.172C0.076,-2.21 0.066,-2.247 0.028,-2.286C-0.771,-3.086 -1.505,-3.791 -2.171,-4.4" style="fill:white;fill-rule:nonzero;"/>
                </g>
                <g transform="matrix(18.6002,0,0,30.3233,2536.26,572.048)">
                    <path d="M0,20.714C0,20.866 0.075,20.943 0.229,20.943L6.171,20.943C6.304,20.943 6.371,20.866 6.371,20.714L6.371,19.143C6.371,19.009 6.304,18.943 6.171,18.943L0.229,18.943C0.075,18.943 0,19.009 0,19.143L0,20.714ZM6.171,17.143C6.304,17.143 6.371,17.076 6.371,16.943L6.371,15.456C6.371,15.323 6.304,15.257 6.171,15.257L0.229,15.257C0.075,15.257 0,15.323 0,15.456L0,16.943C0,17.076 0.075,17.143 0.229,17.143L6.171,17.143ZM-6.715,7.914C-6.867,7.914 -6.943,7.981 -6.943,8.113L-6.943,9.771C-6.943,9.924 -6.867,9.999 -6.715,9.999L4.285,9.999C4.437,9.999 4.515,9.924 4.515,9.771L4.515,8.113C4.515,7.981 4.437,7.914 4.285,7.914L-6.715,7.914ZM-8.571,18.943C-8.705,18.943 -8.771,19.009 -8.771,19.143L-8.771,20.714C-8.771,20.866 -8.705,20.943 -8.571,20.943L-2.887,20.943C-2.733,20.943 -2.657,20.866 -2.657,20.714L-2.657,19.143C-2.657,19.009 -2.733,18.943 -2.887,18.943L-8.571,18.943ZM-2.657,15.456C-2.657,15.323 -2.733,15.257 -2.887,15.257L-8.571,15.257C-8.705,15.257 -8.771,15.323 -8.771,15.456L-8.771,16.943C-8.771,17.076 -8.705,17.143 -8.571,17.143L-2.887,17.143C-2.733,17.143 -2.657,17.076 -2.657,16.943L-2.657,15.456ZM-9.058,4.342C-9.248,4.152 -9.344,3.923 -9.344,3.656C-9.344,3.39 -9.248,3.166 -9.058,2.985C-8.867,2.804 -8.64,2.713 -8.372,2.713L5.942,2.713C6.209,2.713 6.437,2.804 6.629,2.985C6.818,3.166 6.914,3.39 6.914,3.656C6.914,3.923 6.818,4.152 6.629,4.342C6.437,4.532 6.209,4.627 5.942,4.627L-8.372,4.627C-8.64,4.627 -8.867,4.532 -9.058,4.342M-7.743,11.828C-8.2,11.828 -8.596,11.666 -8.929,11.342C-9.263,11.019 -9.43,10.618 -9.43,10.143L-9.43,7.742C-9.43,7.285 -9.263,6.89 -8.929,6.557C-8.596,6.224 -8.2,6.056 -7.743,6.056L5.457,6.056C5.914,6.056 6.309,6.224 6.643,6.557C6.976,6.89 7.143,7.285 7.143,7.742L7.143,10.143C7.143,10.618 6.976,11.019 6.643,11.342C6.309,11.666 5.914,11.828 5.457,11.828L-7.743,11.828ZM-10.058,23.771C-10.42,23.771 -10.725,23.643 -10.973,23.386C-11.22,23.128 -11.344,22.828 -11.344,22.485L-11.344,14.913C-11.344,14.456 -11.182,14.062 -10.858,13.729C-10.534,13.396 -10.134,13.228 -9.658,13.228L7.371,13.228C7.848,13.228 8.247,13.396 8.571,13.729C8.895,14.062 9.058,14.456 9.058,14.913L9.058,22.342C9.058,22.704 8.928,23.019 8.671,23.285C8.414,23.552 8.095,23.686 7.714,23.686L7,23.686C6.828,23.686 6.681,23.623 6.557,23.499C6.433,23.375 6.371,23.229 6.371,23.057C6.371,23 6.343,22.971 6.285,22.971L-8.687,22.971C-8.743,22.971 -8.771,23 -8.771,23.057C-8.771,23.266 -8.844,23.438 -8.986,23.57C-9.129,23.704 -9.296,23.771 -9.486,23.771L-10.058,23.771ZM0.086,-1.458C0.086,-1.325 0.152,-1.258 0.285,-1.258L9.399,-1.258C9.876,-1.258 10.276,-1.091 10.6,-0.759C10.924,-0.425 11.085,-0.029 11.085,0.428L11.085,3.256C11.085,3.638 10.957,3.956 10.7,4.213C10.442,4.471 10.123,4.6 9.743,4.6C9.361,4.6 9.043,4.471 8.786,4.213C8.528,3.956 8.399,3.638 8.399,3.256L8.399,1.285C8.399,1.133 8.323,1.057 8.171,1.057L-10.629,1.057C-10.781,1.057 -10.858,1.133 -10.858,1.285L-10.858,3.314C-10.858,3.676 -10.981,3.981 -11.229,4.228C-11.477,4.476 -11.781,4.6 -12.144,4.6C-12.506,4.6 -12.811,4.476 -13.058,4.228C-13.306,3.981 -13.429,3.676 -13.429,3.314L-13.429,0.428C-13.429,-0.029 -13.263,-0.425 -12.93,-0.759C-12.597,-1.091 -12.2,-1.258 -11.743,-1.258L-2.887,-1.258C-2.753,-1.258 -2.687,-1.325 -2.687,-1.458L-2.687,-1.658C-2.687,-2.057 -2.553,-2.391 -2.286,-2.658C-2.02,-2.925 -1.691,-3.057 -1.301,-3.057C-0.91,-3.057 -0.582,-2.925 -0.314,-2.658C-0.048,-2.391 0.086,-2.057 0.086,-1.658L0.086,-1.458Z" style="fill:white;fill-rule:nonzero;"/>
                </g>
                <g transform="matrix(18.6002,0,0,30.3233,3147.49,908.227)">
                    <path d="M0,-0.602C-0.248,-0.602 -0.457,-0.687 -0.629,-0.859C-0.801,-1.031 -0.886,-1.24 -0.886,-1.487C-0.886,-1.735 -0.801,-1.944 -0.629,-2.116C-0.457,-2.288 -0.248,-2.373 0,-2.373L4.972,-2.373C5.219,-2.373 5.433,-2.288 5.614,-2.116C5.795,-1.944 5.886,-1.735 5.886,-1.487C5.886,-1.24 5.795,-1.031 5.614,-0.859C5.433,-0.687 5.219,-0.602 4.972,-0.602L0,-0.602ZM-0.614,-4.145C-0.796,-4.316 -0.886,-4.53 -0.886,-4.788C-0.886,-5.044 -0.796,-5.259 -0.614,-5.43C-0.434,-5.601 -0.22,-5.687 0.028,-5.687L4.229,-5.687C4.476,-5.687 4.689,-5.601 4.871,-5.43C5.053,-5.259 5.143,-5.044 5.143,-4.788C5.143,-4.53 5.053,-4.316 4.871,-4.145C4.689,-3.973 4.476,-3.887 4.229,-3.887L0.028,-3.887C-0.22,-3.887 -0.434,-3.973 -0.614,-4.145M0.942,6.884C0.961,6.884 0.972,6.871 0.972,6.841C0.972,6.813 0.952,6.798 0.914,6.798L-6.029,6.798C-6.162,6.798 -6.268,6.856 -6.344,6.97C-6.896,7.79 -7.505,8.609 -8.172,9.427C-8.21,9.447 -8.22,9.475 -8.2,9.513C-8.182,9.551 -8.153,9.57 -8.114,9.57C-3.258,9.475 0.009,9.409 1.686,9.37C1.724,9.37 1.747,9.356 1.757,9.328C1.766,9.298 1.752,9.275 1.714,9.255C1.447,9.028 1.152,8.798 0.828,8.57C0.543,8.38 0.399,8.113 0.399,7.77C0.399,7.351 0.581,7.056 0.942,6.884M-7.114,-5.687C-6.867,-5.687 -6.653,-5.601 -6.472,-5.43C-6.291,-5.259 -6.2,-5.044 -6.2,-4.788C-6.2,-4.53 -6.291,-4.316 -6.472,-4.145C-6.653,-3.973 -6.867,-3.887 -7.114,-3.887L-11.229,-3.887C-11.496,-3.887 -11.715,-3.973 -11.887,-4.145C-12.058,-4.316 -12.144,-4.53 -12.144,-4.788C-12.144,-5.044 -12.058,-5.259 -11.887,-5.43C-11.715,-5.601 -11.496,-5.687 -11.229,-5.687L-7.114,-5.687ZM-11.857,-0.602C-12.105,-0.602 -12.32,-0.687 -12.501,-0.859C-12.682,-1.031 -12.772,-1.24 -12.772,-1.487C-12.772,-1.735 -12.682,-1.944 -12.501,-2.116C-12.32,-2.288 -12.105,-2.373 -11.857,-2.373L-7.086,-2.373C-6.857,-2.373 -6.653,-2.288 -6.472,-2.116C-6.291,-1.944 -6.2,-1.735 -6.2,-1.487C-6.2,-1.24 -6.291,-1.031 -6.472,-0.859C-6.653,-0.687 -6.857,-0.602 -7.086,-0.602L-11.857,-0.602ZM-12.114,2.999C-12.382,2.999 -12.615,2.899 -12.814,2.699C-13.015,2.499 -13.114,2.26 -13.114,1.984C-13.114,1.709 -13.015,1.47 -12.814,1.27C-12.615,1.07 -12.382,0.97 -12.114,0.97L5.229,0.97C5.495,0.97 5.729,1.07 5.929,1.27C6.129,1.47 6.229,1.709 6.229,1.984C6.229,2.26 6.129,2.499 5.929,2.699C5.729,2.899 5.495,2.999 5.229,2.999L-12.114,2.999ZM-13.286,-7.173C-13.42,-7.173 -13.486,-7.106 -13.486,-6.973L-13.486,-4.058C-13.486,-3.735 -13.605,-3.454 -13.844,-3.215C-14.082,-2.977 -14.367,-2.859 -14.7,-2.859C-15.034,-2.859 -15.32,-2.977 -15.558,-3.215C-15.796,-3.454 -15.915,-3.735 -15.915,-4.058L-15.915,-7.544C-15.915,-8.02 -15.753,-8.42 -15.429,-8.745C-15.105,-9.068 -14.705,-9.23 -14.229,-9.23L-5.114,-9.23C-4.962,-9.23 -4.886,-9.306 -4.886,-9.458L-4.886,-10.715C-4.886,-10.849 -4.962,-10.915 -5.114,-10.915L-13.114,-10.915C-13.42,-10.915 -13.677,-11.02 -13.887,-11.23C-14.096,-11.44 -14.201,-11.692 -14.201,-11.987C-14.201,-12.283 -14.096,-12.535 -13.887,-12.745C-13.677,-12.954 -13.42,-13.059 -13.114,-13.059L6.143,-13.059C6.447,-13.059 6.704,-12.954 6.914,-12.745C7.124,-12.535 7.229,-12.283 7.229,-11.987C7.229,-11.692 7.124,-11.44 6.914,-11.23C6.704,-11.02 6.447,-10.915 6.143,-10.915L-2,-10.915C-2.153,-10.915 -2.229,-10.849 -2.229,-10.715L-2.229,-9.458C-2.229,-9.306 -2.153,-9.23 -2,-9.23L7.343,-9.23C7.818,-9.23 8.219,-9.068 8.543,-8.745C8.866,-8.42 9.028,-8.02 9.028,-7.544L9.028,-4.116C9.028,-3.773 8.904,-3.477 8.657,-3.23C8.409,-2.982 8.114,-2.859 7.771,-2.859C7.429,-2.859 7.133,-2.982 6.886,-3.23C6.638,-3.477 6.515,-3.773 6.515,-4.116L6.515,-6.973C6.515,-7.106 6.447,-7.173 6.314,-7.173L-2,-7.173C-2.153,-7.173 -2.229,-7.106 -2.229,-6.973L-2.229,-1.373C-2.229,-1.011 -2.357,-0.702 -2.614,-0.445C-2.872,-0.187 -3.186,-0.058 -3.558,-0.058C-3.929,-0.058 -4.243,-0.187 -4.5,-0.445C-4.758,-0.702 -4.886,-1.011 -4.886,-1.373L-4.886,-6.973C-4.886,-7.106 -4.962,-7.173 -5.114,-7.173L-13.286,-7.173ZM8.543,4.712C8.829,4.712 9.075,4.818 9.285,5.027C9.495,5.237 9.6,5.485 9.6,5.77C9.6,6.056 9.495,6.298 9.285,6.499C9.075,6.699 8.829,6.798 8.543,6.798L2.429,6.798C2.39,6.798 2.371,6.813 2.371,6.841C2.371,6.871 2.381,6.894 2.4,6.914C4.343,8.189 6,9.447 7.371,10.684C7.562,10.875 7.657,11.103 7.657,11.37L7.657,11.542C7.6,11.884 7.419,12.131 7.114,12.285C6.848,12.399 6.571,12.457 6.285,12.457C6.171,12.457 6.057,12.446 5.942,12.427C5.523,12.351 5.161,12.17 4.857,11.884C4.78,11.808 4.686,11.713 4.571,11.599C4.457,11.503 4.333,11.457 4.2,11.457C0.237,11.627 -5.629,11.828 -13.4,12.056L-13.429,12.056C-13.753,12.056 -14.039,11.952 -14.286,11.742C-14.554,11.513 -14.696,11.227 -14.715,10.884C-14.734,10.674 -14.7,10.48 -14.615,10.298C-14.529,10.118 -14.396,9.97 -14.215,9.856C-14.034,9.742 -13.839,9.684 -13.629,9.684L-11.486,9.627C-11.334,9.627 -11.22,9.57 -11.144,9.456C-10.61,8.675 -10.105,7.856 -9.629,6.999C-9.591,6.941 -9.586,6.894 -9.615,6.856C-9.643,6.818 -9.677,6.798 -9.715,6.798L-15.429,6.798C-15.715,6.798 -15.963,6.699 -16.172,6.499C-16.382,6.298 -16.486,6.056 -16.486,5.77C-16.486,5.485 -16.382,5.237 -16.172,5.027C-15.963,4.818 -15.715,4.712 -15.429,4.712L8.543,4.712Z" style="fill:white;fill-rule:nonzero;"/>
                </g>
                <g transform="matrix(18.6002,0,0,30.3233,1760.47,1455.17)">
                    <path d="M0,4.605C-0.102,4.605 -0.187,4.57 -0.257,4.499C-0.326,4.427 -0.36,4.342 -0.36,4.245L-0.36,0.653C-0.36,0.625 -0.377,0.61 -0.409,0.61L-1.411,0.61C-1.492,0.61 -1.562,0.581 -1.622,0.522C-1.681,0.462 -1.711,0.39 -1.711,0.304C-1.711,0.219 -1.681,0.147 -1.622,0.088C-1.562,0.029 -1.492,0 -1.411,0L1.417,0C1.503,0 1.575,0.029 1.634,0.088C1.693,0.147 1.723,0.219 1.723,0.304C1.723,0.39 1.693,0.462 1.634,0.522C1.575,0.581 1.503,0.61 1.417,0.61L0.409,0.61C0.381,0.61 0.366,0.625 0.366,0.653L0.366,4.245C0.366,4.342 0.331,4.427 0.26,4.499C0.188,4.57 0.104,4.605 0.006,4.605L0,4.605Z" style="fill:white;fill-rule:nonzero;"/>
                </g>
                <g transform="matrix(18.6002,0,0,30.3233,1825.42,1504.95)">
                    <path d="M0,2.475C0.249,2.475 0.513,2.353 0.794,2.109C0.814,2.088 0.824,2.062 0.824,2.029L0.824,1.278C0.824,1.249 0.812,1.235 0.788,1.235L0.781,1.235C0.306,1.296 -0.033,1.389 -0.235,1.513C-0.437,1.637 -0.537,1.799 -0.537,1.998C-0.537,2.162 -0.488,2.282 -0.391,2.359C-0.293,2.436 -0.163,2.475 0,2.475M-0.22,3.042C-0.518,3.042 -0.76,2.953 -0.949,2.771C-1.139,2.59 -1.234,2.349 -1.234,2.047C-1.234,1.685 -1.074,1.403 -0.754,1.202C-0.435,0.999 0.077,0.858 0.781,0.777C0.811,0.777 0.824,0.76 0.824,0.728C0.805,0.259 0.586,0.025 0.171,0.025C-0.065,0.025 -0.317,0.094 -0.587,0.233C-0.627,0.257 -0.672,0.27 -0.721,0.27C-0.745,0.27 -0.77,0.266 -0.794,0.257C-0.867,0.237 -0.923,0.194 -0.959,0.129C-0.983,0.084 -0.996,0.039 -0.996,-0.005C-0.996,-0.034 -0.993,-0.06 -0.989,-0.085C-0.969,-0.162 -0.925,-0.219 -0.855,-0.255C-0.464,-0.463 -0.082,-0.567 0.293,-0.567C0.713,-0.567 1.026,-0.441 1.233,-0.189C1.441,0.064 1.545,0.424 1.545,0.893L1.545,2.67C1.545,2.752 1.518,2.822 1.46,2.878C1.402,2.936 1.334,2.963 1.252,2.963C1.167,2.963 1.092,2.936 1.026,2.881C0.961,2.827 0.923,2.756 0.91,2.67L0.897,2.579C0.894,2.571 0.889,2.567 0.883,2.567C0.877,2.567 0.871,2.571 0.867,2.579C0.501,2.889 0.139,3.042 -0.22,3.042" style="fill:white;fill-rule:nonzero;"/>
                </g>
                <g transform="matrix(18.6002,0,0,30.3233,1892.54,1448.31)">
                    <path d="M0,4.728C-0.069,4.797 -0.154,4.832 -0.254,4.832C-0.354,4.832 -0.437,4.797 -0.507,4.728C-0.576,4.659 -0.611,4.576 -0.611,4.478L-0.611,1.747C-0.611,1.649 -0.576,1.566 -0.507,1.497C-0.437,1.427 -0.354,1.393 -0.254,1.393C-0.154,1.393 -0.069,1.427 0,1.497C0.069,1.566 0.104,1.649 0.104,1.747L0.104,4.478C0.104,4.576 0.069,4.659 0,4.728M0.076,0.626C-0.012,0.706 -0.121,0.746 -0.254,0.746C-0.386,0.746 -0.495,0.706 -0.58,0.626C-0.666,0.546 -0.709,0.446 -0.709,0.324C-0.709,0.198 -0.666,0.095 -0.58,0.015C-0.495,-0.064 -0.386,-0.104 -0.254,-0.104C-0.121,-0.104 -0.012,-0.064 0.076,0.015C0.164,0.095 0.208,0.198 0.208,0.324C0.208,0.446 0.164,0.546 0.076,0.626" style="fill:white;fill-rule:nonzero;"/>
                </g>
                <g transform="matrix(18.6002,0,0,30.3233,1957.24,1533.16)">
                    <path d="M0,0.531C-0.073,0.531 -0.137,0.505 -0.189,0.455C-0.242,0.403 -0.269,0.342 -0.269,0.268C-0.269,0.195 -0.242,0.132 -0.189,0.079C-0.137,0.026 -0.073,0 0,0L1.117,0C1.19,0 1.253,0.026 1.304,0.079C1.355,0.132 1.38,0.195 1.38,0.268C1.38,0.342 1.355,0.403 1.304,0.455C1.253,0.505 1.19,0.531 1.117,0.531L0,0.531Z" style="fill:white;fill-rule:nonzero;"/>
                </g>
                <g transform="matrix(18.6002,0,0,30.3233,2048.62,1455.17)">
                    <path d="M0,4.605C-0.098,4.605 -0.183,4.57 -0.254,4.499C-0.324,4.427 -0.36,4.342 -0.36,4.245L-0.36,0.36C-0.36,0.262 -0.324,0.177 -0.254,0.106C-0.183,0.035 -0.098,0 0,0L2.064,0C2.15,0 2.223,0.029 2.282,0.088C2.341,0.147 2.37,0.219 2.37,0.304C2.37,0.39 2.341,0.462 2.282,0.522C2.223,0.581 2.15,0.61 2.064,0.61L0.415,0.61C0.383,0.61 0.367,0.625 0.367,0.653L0.367,1.972C0.367,2.001 0.383,2.015 0.415,2.015L1.766,2.015C1.852,2.015 1.924,2.044 1.982,2.104C2.041,2.163 2.071,2.234 2.071,2.318C2.071,2.401 2.041,2.472 1.982,2.532C1.924,2.59 1.852,2.62 1.766,2.62L0.415,2.62C0.383,2.62 0.367,2.636 0.367,2.668L0.367,4.245C0.367,4.342 0.332,4.427 0.263,4.499C0.193,4.57 0.108,4.605 0.006,4.605L0,4.605Z" style="fill:white;fill-rule:nonzero;"/>
                </g>
                <g transform="matrix(18.6002,0,0,30.3233,2131.44,1490.53)">
                    <path d="M0,3.518C-0.701,3.518 -1.052,3.067 -1.052,2.163L-1.052,0.36C-1.052,0.258 -1.017,0.173 -0.947,0.104C-0.878,0.035 -0.794,0 -0.694,0C-0.595,0 -0.509,0.035 -0.437,0.104C-0.366,0.173 -0.331,0.258 -0.331,0.36L-0.331,2.077C-0.331,2.371 -0.286,2.581 -0.196,2.709C-0.106,2.837 0.04,2.902 0.243,2.902C0.395,2.902 0.53,2.865 0.65,2.791C0.771,2.718 0.899,2.596 1.038,2.425C1.059,2.401 1.068,2.372 1.068,2.339L1.068,0.36C1.068,0.258 1.104,0.173 1.176,0.104C1.246,0.035 1.331,0 1.429,0C1.526,0 1.611,0.035 1.683,0.104C1.754,0.173 1.789,0.258 1.789,0.36L1.789,3.146C1.789,3.228 1.761,3.297 1.704,3.354C1.646,3.412 1.577,3.439 1.496,3.439C1.411,3.439 1.338,3.412 1.275,3.357C1.215,3.302 1.179,3.232 1.166,3.146L1.148,2.932C1.144,2.924 1.139,2.92 1.133,2.92C1.126,2.92 1.122,2.922 1.117,2.926C0.95,3.122 0.778,3.269 0.602,3.369C0.424,3.468 0.223,3.518 0,3.518" style="fill:white;fill-rule:nonzero;"/>
                </g>
                <g transform="matrix(18.6002,0,0,30.3233,2261.67,1452.54)">
                    <path d="M0,4.771C-0.595,4.771 -1.084,4.561 -1.47,4.139C-1.854,3.718 -2.047,3.138 -2.047,2.402C-2.047,2.035 -1.992,1.7 -1.885,1.397C-1.776,1.093 -1.629,0.839 -1.441,0.636C-1.254,0.432 -1.034,0.276 -0.782,0.166C-0.529,0.055 -0.259,0 0.03,0C0.434,0 0.796,0.127 1.118,0.379C1.187,0.432 1.222,0.505 1.222,0.599C1.222,0.68 1.195,0.752 1.143,0.813C1.09,0.875 1.022,0.907 0.94,0.911L0.917,0.911C0.844,0.911 0.775,0.89 0.715,0.849C0.512,0.704 0.287,0.63 0.043,0.63C-0.356,0.63 -0.68,0.788 -0.929,1.103C-1.177,1.419 -1.301,1.843 -1.301,2.376C-1.301,2.922 -1.182,3.353 -0.943,3.668C-0.706,3.985 -0.383,4.143 0.024,4.143C0.322,4.143 0.589,4.047 0.825,3.855C0.886,3.811 0.953,3.788 1.026,3.788L1.045,3.788C1.122,3.792 1.187,3.823 1.24,3.88C1.293,3.945 1.319,4.018 1.319,4.1C1.319,4.189 1.287,4.265 1.222,4.326C0.88,4.624 0.473,4.771 0,4.771" style="fill:white;fill-rule:nonzero;"/>
                </g>
                <g transform="matrix(18.6002,0,0,30.3233,2323.69,1443.68)">
                    <path d="M0,5.063C-0.253,5.063 -0.435,4.989 -0.547,4.837C-0.659,4.687 -0.715,4.467 -0.715,4.178L-0.715,0.354C-0.715,0.256 -0.681,0.172 -0.611,0.103C-0.542,0.035 -0.457,0 -0.357,0C-0.258,0 -0.174,0.035 -0.104,0.103C-0.034,0.172 0,0.256 0,0.354L0,4.214C0,4.336 0.032,4.418 0.098,4.459C0.105,4.463 0.124,4.473 0.152,4.49C0.182,4.505 0.201,4.518 0.214,4.526C0.226,4.535 0.242,4.545 0.263,4.56C0.283,4.575 0.298,4.589 0.309,4.605C0.318,4.622 0.324,4.64 0.324,4.661L0.342,4.74L0.342,4.794C0.342,4.852 0.325,4.905 0.293,4.954C0.252,5.019 0.193,5.055 0.116,5.063L0,5.063Z" style="fill:white;fill-rule:nonzero;"/>
                </g>
                <g transform="matrix(18.6002,0,0,30.3233,2378.76,1505.55)">
                    <path d="M0,2.437C0.272,2.437 0.488,2.328 0.647,2.107C0.806,1.887 0.886,1.594 0.886,1.228C0.886,0.861 0.806,0.567 0.647,0.345C0.488,0.124 0.272,0.012 0,0.012C-0.266,0.012 -0.477,0.124 -0.636,0.345C-0.795,0.567 -0.874,0.861 -0.874,1.228C-0.874,1.594 -0.795,1.887 -0.636,2.107C-0.477,2.328 -0.266,2.437 0,2.437M0.613,2.902C0.42,2.983 0.216,3.023 0.003,3.023C-0.211,3.023 -0.416,2.983 -0.611,2.902C-0.807,2.82 -0.979,2.705 -1.128,2.556C-1.276,2.408 -1.396,2.218 -1.484,1.988C-1.574,1.758 -1.619,1.504 -1.619,1.228C-1.619,0.951 -1.574,0.696 -1.484,0.464C-1.396,0.232 -1.276,0.041 -1.128,-0.11C-0.979,-0.261 -0.807,-0.377 -0.611,-0.461C-0.416,-0.544 -0.211,-0.586 0.003,-0.586C0.216,-0.586 0.42,-0.544 0.613,-0.461C0.807,-0.377 0.979,-0.261 1.13,-0.11C1.28,0.041 1.4,0.232 1.49,0.464C1.58,0.696 1.624,0.951 1.624,1.228C1.624,1.504 1.58,1.758 1.49,1.988C1.4,2.218 1.28,2.408 1.13,2.556C0.979,2.705 0.807,2.82 0.613,2.902" style="fill:white;fill-rule:nonzero;"/>
                </g>
                <g transform="matrix(18.6002,0,0,30.3233,2451.44,1490.53)">
                    <path d="M0,3.518C-0.7,3.518 -1.051,3.067 -1.051,2.163L-1.051,0.36C-1.051,0.258 -1.016,0.173 -0.947,0.104C-0.878,0.035 -0.793,0 -0.693,0C-0.594,0 -0.508,0.035 -0.437,0.104C-0.365,0.173 -0.33,0.258 -0.33,0.36L-0.33,2.077C-0.33,2.371 -0.285,2.581 -0.195,2.709C-0.105,2.837 0.041,2.902 0.244,2.902C0.396,2.902 0.53,2.865 0.651,2.791C0.771,2.718 0.9,2.596 1.038,2.425C1.06,2.401 1.069,2.372 1.069,2.339L1.069,0.36C1.069,0.258 1.104,0.173 1.177,0.104C1.247,0.035 1.332,0 1.43,0C1.527,0 1.612,0.035 1.684,0.104C1.755,0.173 1.79,0.258 1.79,0.36L1.79,3.146C1.79,3.228 1.762,3.297 1.705,3.354C1.647,3.412 1.578,3.439 1.497,3.439C1.411,3.439 1.338,3.412 1.276,3.357C1.216,3.302 1.18,3.232 1.167,3.146L1.148,2.932C1.145,2.924 1.14,2.92 1.134,2.92C1.127,2.92 1.122,2.922 1.118,2.926C0.951,3.122 0.779,3.269 0.603,3.369C0.425,3.468 0.224,3.518 0,3.518" style="fill:white;fill-rule:nonzero;"/>
                </g>
                <g transform="matrix(18.6002,0,0,30.3233,2538.1,1461.61)">
                    <path d="M0,3.88C0.269,3.88 0.52,3.751 0.751,3.495C0.771,3.475 0.782,3.448 0.782,3.415L0.782,1.821C0.782,1.792 0.771,1.769 0.751,1.748C0.527,1.561 0.285,1.467 0.024,1.467C-0.22,1.467 -0.426,1.576 -0.593,1.794C-0.76,2.012 -0.843,2.302 -0.843,2.664C-0.843,3.056 -0.77,3.356 -0.623,3.566C-0.477,3.775 -0.269,3.88 0,3.88M-0.165,4.472C-0.601,4.472 -0.946,4.315 -1.204,3.999C-1.46,3.684 -1.588,3.242 -1.588,2.677C-1.588,2.139 -1.443,1.702 -1.151,1.366C-0.86,1.03 -0.514,0.862 -0.11,0.862C0.065,0.862 0.221,0.892 0.357,0.951C0.493,1.01 0.636,1.101 0.782,1.223C0.786,1.227 0.792,1.228 0.801,1.226C0.809,1.224 0.812,1.217 0.812,1.204L0.782,0.686L0.782,-0.231C0.782,-0.333 0.817,-0.419 0.889,-0.488C0.96,-0.557 1.046,-0.592 1.146,-0.592C1.245,-0.592 1.329,-0.557 1.399,-0.488C1.468,-0.419 1.503,-0.333 1.503,-0.231L1.503,4.1C1.503,4.182 1.475,4.251 1.417,4.308C1.36,4.365 1.291,4.393 1.21,4.393C1.124,4.393 1.049,4.365 0.983,4.311C0.918,4.256 0.88,4.186 0.867,4.1L0.855,4.014C0.855,4.01 0.852,4.008 0.843,4.008C0.835,4.008 0.828,4.01 0.824,4.014C0.523,4.319 0.193,4.472 -0.165,4.472" style="fill:white;fill-rule:nonzero;"/>
                </g>
                <g transform="matrix(18.6002,0,0,30.3233,2653.93,1455.17)">
                    <path d="M0,4.605C-0.103,4.605 -0.188,4.57 -0.257,4.499C-0.326,4.427 -0.361,4.342 -0.361,4.245L-0.361,0.653C-0.361,0.625 -0.377,0.61 -0.409,0.61L-1.411,0.61C-1.493,0.61 -1.563,0.581 -1.622,0.522C-1.682,0.462 -1.711,0.39 -1.711,0.304C-1.711,0.219 -1.682,0.147 -1.622,0.088C-1.563,0.029 -1.493,0 -1.411,0L1.417,0C1.502,0 1.574,0.029 1.634,0.088C1.693,0.147 1.723,0.219 1.723,0.304C1.723,0.39 1.693,0.462 1.634,0.522C1.574,0.581 1.502,0.61 1.417,0.61L0.409,0.61C0.381,0.61 0.366,0.625 0.366,0.653L0.366,4.245C0.366,4.342 0.33,4.427 0.259,4.499C0.188,4.57 0.104,4.605 0.006,4.605L0,4.605Z" style="fill:white;fill-rule:nonzero;"/>
                </g>
                <g transform="matrix(18.6002,0,0,30.3233,2707.99,1552.77)">
                    <path d="M0,-0.678C0,-0.654 0.012,-0.641 0.036,-0.641L1.601,-0.641C1.628,-0.641 1.643,-0.656 1.643,-0.684C1.634,-0.969 1.565,-1.189 1.435,-1.344C1.305,-1.498 1.117,-1.576 0.873,-1.576C0.657,-1.576 0.468,-1.498 0.305,-1.344C0.101,-1.145 0,-0.922 0,-0.678M0.971,1.466C0.485,1.466 0.085,1.305 -0.232,0.984C-0.551,0.662 -0.709,0.224 -0.709,-0.329C-0.709,-0.599 -0.666,-0.849 -0.578,-1.081C-0.49,-1.314 -0.373,-1.506 -0.227,-1.658C-0.08,-1.812 0.087,-1.93 0.274,-2.016C0.462,-2.101 0.657,-2.144 0.86,-2.144C1.309,-2.144 1.654,-1.996 1.899,-1.701C2.144,-1.407 2.266,-1.008 2.266,-0.507L2.266,-0.5C2.262,-0.404 2.221,-0.32 2.144,-0.25C2.066,-0.181 1.975,-0.146 1.869,-0.146L0.042,-0.146C0.014,-0.146 0.001,-0.13 0.006,-0.098C0.038,0.217 0.149,0.462 0.339,0.638C0.528,0.815 0.77,0.904 1.062,0.904C1.266,0.904 1.464,0.861 1.654,0.776C1.695,0.756 1.736,0.745 1.777,0.745C1.802,0.745 1.826,0.75 1.851,0.758C1.92,0.778 1.973,0.818 2.009,0.88C2.029,0.921 2.039,0.964 2.039,1.008C2.039,1.033 2.038,1.057 2.033,1.081C2.013,1.15 1.971,1.202 1.905,1.234C1.607,1.388 1.296,1.466 0.971,1.466" style="fill:white;fill-rule:nonzero;"/>
                </g>
                <g transform="matrix(18.6002,0,0,30.3233,2799.17,1487.77)">
                    <path d="M0,3.609C-0.476,3.609 -0.869,3.45 -1.179,3.13C-1.488,2.81 -1.643,2.372 -1.643,1.814C-1.643,1.537 -1.598,1.282 -1.505,1.05C-1.414,0.818 -1.289,0.627 -1.133,0.476C-0.977,0.325 -0.795,0.209 -0.589,0.125C-0.383,0.042 -0.167,0 0.062,0C0.338,0 0.595,0.073 0.831,0.219C0.9,0.264 0.939,0.328 0.947,0.409C0.951,0.421 0.953,0.435 0.953,0.451C0.953,0.517 0.931,0.576 0.886,0.629C0.842,0.69 0.778,0.726 0.697,0.739L0.647,0.739C0.587,0.739 0.527,0.724 0.471,0.696C0.349,0.63 0.223,0.598 0.092,0.598C-0.197,0.598 -0.435,0.711 -0.619,0.934C-0.805,1.158 -0.897,1.451 -0.897,1.814C-0.897,2.176 -0.808,2.468 -0.629,2.69C-0.449,2.912 -0.216,3.023 0.073,3.023C0.249,3.023 0.422,2.972 0.594,2.871C0.642,2.842 0.693,2.828 0.746,2.828C0.762,2.828 0.78,2.83 0.801,2.835C0.874,2.85 0.931,2.888 0.972,2.95C1.005,2.999 1.021,3.054 1.021,3.115C1.021,3.131 1.019,3.15 1.015,3.17C1.002,3.252 0.962,3.313 0.893,3.353C0.62,3.524 0.322,3.609 0,3.609" style="fill:white;fill-rule:nonzero;"/>
                </g>
                <g transform="matrix(18.6002,0,0,30.3233,2852.77,1446.82)">
                    <path d="M0,4.777C-0.07,4.846 -0.154,4.881 -0.254,4.881C-0.354,4.881 -0.438,4.846 -0.508,4.777C-0.576,4.708 -0.611,4.625 -0.611,4.527L-0.611,0.251C-0.611,0.153 -0.576,0.069 -0.508,0C-0.438,-0.069 -0.354,-0.104 -0.254,-0.104C-0.154,-0.104 -0.07,-0.069 0,0C0.069,0.069 0.104,0.153 0.104,0.251L0.104,1.215L0.079,1.851C0.079,1.859 0.083,1.865 0.092,1.869C0.1,1.874 0.105,1.872 0.109,1.863C0.281,1.705 0.451,1.579 0.623,1.487C0.794,1.396 0.983,1.35 1.191,1.35C1.896,1.35 2.248,1.806 2.248,2.718L2.248,4.52C2.248,4.623 2.213,4.708 2.145,4.777C2.074,4.846 1.99,4.881 1.891,4.881C1.791,4.881 1.705,4.846 1.634,4.777C1.562,4.708 1.527,4.623 1.527,4.52L1.527,2.804C1.527,2.506 1.48,2.294 1.39,2.166C1.298,2.037 1.15,1.973 0.946,1.973C0.8,1.973 0.667,2.006 0.55,2.074C0.432,2.141 0.293,2.253 0.134,2.407C0.113,2.431 0.104,2.458 0.104,2.486L0.104,4.527C0.104,4.625 0.069,4.708 0,4.777" style="fill:white;fill-rule:nonzero;"/>
                </g>
                <g transform="matrix(18.6002,0,0,30.3233,2933.08,1490.91)">
                    <path d="M0,3.323C-0.07,3.392 -0.154,3.427 -0.254,3.427C-0.354,3.427 -0.438,3.392 -0.508,3.323C-0.577,3.254 -0.611,3.171 -0.611,3.073L-0.611,0.281C-0.611,0.199 -0.583,0.131 -0.525,0.073C-0.469,0.016 -0.399,-0.012 -0.318,-0.012C-0.232,-0.012 -0.158,0.015 -0.096,0.07C-0.032,0.125 0.003,0.195 0.012,0.281L0.03,0.452C0.034,0.461 0.039,0.464 0.046,0.464C0.052,0.464 0.057,0.462 0.061,0.458C0.244,0.278 0.424,0.14 0.602,0.043C0.778,-0.055 0.976,-0.104 1.191,-0.104C1.896,-0.104 2.248,0.352 2.248,1.264L2.248,3.066C2.248,3.169 2.213,3.254 2.145,3.323C2.074,3.392 1.99,3.427 1.89,3.427C1.79,3.427 1.705,3.392 1.634,3.323C1.562,3.254 1.527,3.169 1.527,3.066L1.527,1.35C1.527,1.052 1.48,0.84 1.39,0.712C1.298,0.583 1.15,0.519 0.946,0.519C0.8,0.519 0.667,0.552 0.55,0.62C0.432,0.687 0.293,0.799 0.134,0.953C0.113,0.977 0.104,1.004 0.104,1.032L0.104,3.073C0.104,3.171 0.069,3.254 0,3.323" style="fill:white;fill-rule:nonzero;"/>
                </g>
                <g transform="matrix(18.6002,0,0,30.3233,3027.91,1505.55)">
                    <path d="M0,2.437C0.273,2.437 0.488,2.328 0.647,2.107C0.806,1.887 0.886,1.594 0.886,1.228C0.886,0.861 0.806,0.567 0.647,0.345C0.488,0.124 0.273,0.012 0,0.012C-0.265,0.012 -0.477,0.124 -0.636,0.345C-0.795,0.567 -0.874,0.861 -0.874,1.228C-0.874,1.594 -0.795,1.887 -0.636,2.107C-0.477,2.328 -0.265,2.437 0,2.437M0.613,2.902C0.42,2.983 0.217,3.023 0.003,3.023C-0.211,3.023 -0.416,2.983 -0.611,2.902C-0.807,2.82 -0.979,2.705 -1.127,2.556C-1.276,2.408 -1.396,2.218 -1.484,1.988C-1.574,1.758 -1.619,1.504 -1.619,1.228C-1.619,0.951 -1.574,0.696 -1.484,0.464C-1.396,0.232 -1.276,0.041 -1.127,-0.11C-0.979,-0.261 -0.807,-0.377 -0.611,-0.461C-0.416,-0.544 -0.211,-0.586 0.003,-0.586C0.217,-0.586 0.42,-0.544 0.613,-0.461C0.808,-0.377 0.979,-0.261 1.13,-0.11C1.28,0.041 1.4,0.232 1.49,0.464C1.58,0.696 1.625,0.951 1.625,1.228C1.625,1.504 1.58,1.758 1.49,1.988C1.4,2.218 1.28,2.408 1.13,2.556C0.979,2.705 0.808,2.82 0.613,2.902" style="fill:white;fill-rule:nonzero;"/>
                </g>
                <g transform="matrix(18.6002,0,0,30.3233,3095.14,1443.68)">
                    <path d="M0,5.063C-0.253,5.063 -0.436,4.989 -0.547,4.837C-0.659,4.687 -0.715,4.467 -0.715,4.178L-0.715,0.354C-0.715,0.256 -0.681,0.172 -0.611,0.103C-0.542,0.035 -0.457,0 -0.357,0C-0.258,0 -0.174,0.035 -0.104,0.103C-0.034,0.172 0,0.256 0,0.354L0,4.214C0,4.336 0.032,4.418 0.098,4.459C0.105,4.463 0.124,4.473 0.152,4.49C0.182,4.505 0.201,4.518 0.214,4.526C0.226,4.535 0.242,4.545 0.263,4.56C0.282,4.575 0.298,4.589 0.309,4.605C0.318,4.622 0.323,4.64 0.323,4.661L0.342,4.74L0.342,4.794C0.342,4.852 0.325,4.905 0.293,4.954C0.252,5.019 0.193,5.055 0.116,5.063L0,5.063Z" style="fill:white;fill-rule:nonzero;"/>
                </g>
                <g transform="matrix(18.6002,0,0,30.3233,3150.21,1505.55)">
                    <path d="M0,2.437C0.273,2.437 0.489,2.328 0.647,2.107C0.806,1.887 0.886,1.594 0.886,1.228C0.886,0.861 0.806,0.567 0.647,0.345C0.489,0.124 0.273,0.012 0,0.012C-0.265,0.012 -0.477,0.124 -0.636,0.345C-0.795,0.567 -0.874,0.861 -0.874,1.228C-0.874,1.594 -0.795,1.887 -0.636,2.107C-0.477,2.328 -0.265,2.437 0,2.437M0.614,2.902C0.42,2.983 0.217,3.023 0.003,3.023C-0.211,3.023 -0.416,2.983 -0.611,2.902C-0.806,2.82 -0.979,2.705 -1.127,2.556C-1.276,2.408 -1.396,2.218 -1.484,1.988C-1.574,1.758 -1.619,1.504 -1.619,1.228C-1.619,0.951 -1.574,0.696 -1.484,0.464C-1.396,0.232 -1.276,0.041 -1.127,-0.11C-0.979,-0.261 -0.806,-0.377 -0.611,-0.461C-0.416,-0.544 -0.211,-0.586 0.003,-0.586C0.217,-0.586 0.42,-0.544 0.614,-0.461C0.808,-0.377 0.979,-0.261 1.13,-0.11C1.28,0.041 1.4,0.232 1.49,0.464C1.58,0.696 1.625,0.951 1.625,1.228C1.625,1.504 1.58,1.758 1.49,1.988C1.4,2.218 1.28,2.408 1.13,2.556C0.979,2.705 0.808,2.82 0.614,2.902" style="fill:white;fill-rule:nonzero;"/>
                </g>
                <g transform="matrix(18.6002,0,0,30.3233,3217.89,1588.55)">
                    <path d="M0,-1.528C0.126,-1.394 0.28,-1.326 0.464,-1.326C0.647,-1.326 0.801,-1.394 0.925,-1.528C1.05,-1.663 1.111,-1.841 1.111,-2.066C1.111,-2.29 1.051,-2.467 0.929,-2.6C0.806,-2.733 0.651,-2.799 0.464,-2.799C0.276,-2.799 0.121,-2.733 -0.003,-2.603C-0.128,-2.473 -0.189,-2.294 -0.189,-2.066C-0.189,-1.841 -0.127,-1.663 0,-1.528M0.543,1.294C0.837,1.294 1.077,1.233 1.264,1.111C1.452,0.989 1.545,0.846 1.545,0.683C1.545,0.544 1.492,0.448 1.387,0.39C1.28,0.333 1.117,0.305 0.897,0.305L0.379,0.305C0.24,0.305 0.102,0.292 -0.037,0.268C-0.045,0.264 -0.053,0.262 -0.062,0.262C-0.082,0.262 -0.101,0.27 -0.116,0.285C-0.291,0.421 -0.379,0.577 -0.379,0.756C-0.379,0.923 -0.297,1.055 -0.132,1.151C0.033,1.246 0.258,1.294 0.543,1.294M0.439,1.771C0.012,1.771 -0.333,1.693 -0.596,1.535C-0.858,1.378 -0.99,1.154 -0.99,0.86C-0.99,0.722 -0.947,0.588 -0.861,0.46C-0.775,0.332 -0.656,0.219 -0.501,0.121C-0.493,0.117 -0.489,0.11 -0.489,0.1C-0.489,0.089 -0.493,0.08 -0.501,0.073C-0.7,-0.053 -0.801,-0.241 -0.801,-0.489C-0.801,-0.721 -0.676,-0.931 -0.428,-1.119C-0.424,-1.123 -0.422,-1.129 -0.422,-1.137C-0.422,-1.145 -0.424,-1.152 -0.428,-1.156C-0.554,-1.257 -0.659,-1.388 -0.742,-1.547C-0.826,-1.705 -0.868,-1.879 -0.868,-2.066C-0.868,-2.44 -0.739,-2.74 -0.483,-2.964C-0.227,-3.188 0.09,-3.299 0.464,-3.299C0.623,-3.299 0.775,-3.277 0.922,-3.232C0.951,-3.22 0.979,-3.215 1.008,-3.215L1.911,-3.215C1.989,-3.215 2.054,-3.188 2.104,-3.134C2.155,-3.082 2.181,-3.019 2.181,-2.946C2.181,-2.873 2.155,-2.809 2.104,-2.757C2.054,-2.703 1.989,-2.676 1.911,-2.676L1.569,-2.676C1.562,-2.676 1.556,-2.673 1.552,-2.664C1.548,-2.656 1.549,-2.65 1.558,-2.646C1.687,-2.487 1.753,-2.288 1.753,-2.048C1.753,-1.68 1.631,-1.391 1.387,-1.179C1.143,-0.968 0.835,-0.862 0.464,-0.862C0.313,-0.862 0.167,-0.893 0.024,-0.954C-0.005,-0.963 -0.031,-0.956 -0.055,-0.935C-0.157,-0.838 -0.208,-0.728 -0.208,-0.605C-0.208,-0.496 -0.164,-0.412 -0.076,-0.355C0.011,-0.299 0.158,-0.269 0.366,-0.269L1.001,-0.269C1.413,-0.269 1.723,-0.203 1.931,-0.068C2.138,0.066 2.242,0.278 2.242,0.568C2.242,0.91 2.076,1.196 1.744,1.425C1.412,1.656 0.978,1.771 0.439,1.771" style="fill:white;fill-rule:nonzero;"/>
                </g>
                <g transform="matrix(18.6002,0,0,30.3233,3323.86,1638.91)">
                    <path d="M0,-4.881C0.086,-4.881 0.155,-4.845 0.208,-4.771C0.236,-4.726 0.251,-4.68 0.251,-4.63C0.251,-4.607 0.246,-4.577 0.238,-4.545L-0.91,-1.234C-1.057,-0.831 -1.235,-0.525 -1.444,-0.315C-1.654,-0.105 -1.928,0 -2.266,0C-2.319,0 -2.37,-0.002 -2.419,-0.006C-2.497,-0.014 -2.555,-0.053 -2.597,-0.122C-2.624,-0.171 -2.639,-0.222 -2.639,-0.275C-2.639,-0.299 -2.637,-0.323 -2.633,-0.349C-2.612,-0.422 -2.57,-0.478 -2.504,-0.516C-2.439,-0.555 -2.364,-0.576 -2.278,-0.58C-1.961,-0.597 -1.732,-0.813 -1.594,-1.228L-1.539,-1.417C-1.527,-1.445 -1.527,-1.475 -1.539,-1.502L-2.755,-4.545C-2.767,-4.577 -2.773,-4.608 -2.773,-4.637C-2.773,-4.682 -2.759,-4.726 -2.73,-4.771C-2.682,-4.845 -2.614,-4.881 -2.528,-4.881L-2.511,-4.881C-2.4,-4.881 -2.302,-4.849 -2.215,-4.786C-2.127,-4.723 -2.064,-4.641 -2.028,-4.539L-1.509,-3.11C-1.484,-3.028 -1.437,-2.877 -1.368,-2.657C-1.299,-2.438 -1.244,-2.269 -1.203,-2.15C-1.199,-2.142 -1.192,-2.139 -1.182,-2.139C-1.172,-2.139 -1.165,-2.144 -1.16,-2.156L-0.897,-3.11L-0.452,-4.545C-0.419,-4.643 -0.361,-4.723 -0.277,-4.786C-0.194,-4.849 -0.102,-4.881 0,-4.881" style="fill:white;fill-rule:nonzero;"/>
                </g>
                <g transform="matrix(0,-30.3233,-18.6002,0,1506.54,465.835)">
                    <path d="M-22.33,-0.234L-12.434,-0.234L-0.234,22.33L-10.017,22.33L-22.33,-0.234Z" style="fill:rgb(91,203,245);fill-rule:nonzero;"/>
                </g>
                <g transform="matrix(0,-30.3233,-18.6002,0,1086.82,1150.06)">
                    <path d="M0.234,22.331L10.131,22.331L22.331,-0.234L12.548,-0.234L0.234,22.331Z" style="fill:rgb(185,229,251);fill-rule:nonzero;"/>
                </g>
                <g transform="matrix(0,-30.3233,-18.6002,0,1506.53,130.845)">
                    <path d="M-22.33,-0.235L-12.433,-0.235L-0.235,22.33L-10.016,22.33L-22.33,-0.235Z" style="fill:rgb(91,203,245);fill-rule:nonzero;"/>
                </g>
                <g transform="matrix(0,-30.3233,-18.6002,0,1086.81,815.074)">
                    <path d="M0.235,22.33L10.131,22.33L22.33,-0.235L12.548,-0.235L0.235,22.33Z" style="fill:rgb(185,229,251);fill-rule:nonzero;"/>
                </g>
                <g transform="matrix(0,30.3233,18.6002,0,1086.81,836.564)">
                    <path d="M0.235,-22.33L10.131,-22.33L22.33,0.235L12.548,0.235L0.235,-22.33Z" style="fill:rgb(147,149,152);fill-rule:nonzero;"/>
                </g>
                <g transform="matrix(0,30.3233,18.6002,0,1506.53,1520.79)">
                    <path d="M-22.33,0.235L-12.433,0.235L-0.235,-22.33L-10.016,-22.33L-22.33,0.235Z" style="fill:rgb(187,189,192);fill-rule:nonzero;"/>
                </g>
                <g transform="matrix(0,30.3233,18.6002,0,1086.82,1184.91)">
                    <path d="M0.234,-22.331L10.131,-22.331L22.331,0.234L12.548,0.234L0.234,-22.331Z" style="fill:rgb(147,149,152);fill-rule:nonzero;"/>
                </g>
                <g transform="matrix(0,30.3233,18.6002,0,1506.54,1869.14)">
                    <path d="M-22.33,0.234L-12.434,0.234L-0.234,-22.33L-10.017,-22.33L-22.33,0.234Z" style="fill:rgb(187,189,192);fill-rule:nonzero;"/>
                </g>
            </g>
        </g>
    </g>
</svg>
